<svg width="52" height="55" viewBox="0 0 52 55" fill="none" xmlns="http://www.w3.org/2000/svg">
<path d="M50.0168 13.8434C49.9635 13.8434 49.8835 13.8434 49.8035 13.8434C35.6948 12.5045 21.6127 11.9993 7.66398 13.3381L2.22319 13.8434C1.10303 13.9444 0.116224 13.1866 0.00954186 12.1256C-0.0971402 11.0646 0.702976 10.1552 1.79647 10.0541L7.23725 9.5489C21.426 8.18477 35.8015 8.71526 50.2035 10.0541C51.297 10.1552 52.0971 11.0899 51.9905 12.1256C51.9104 13.1108 51.0303 13.8434 50.0168 13.8434Z" fill="#292D32"/>
<path d="M16.6815 11.2919C16.5748 11.2919 16.4681 11.2919 16.3348 11.2667C15.2679 11.0898 14.5212 10.1046 14.7078 9.09418L15.2946 5.78491C15.7213 3.35979 16.3081 0 22.5222 0H29.5099C35.7508 0 36.3375 3.4861 36.7376 5.81017L37.3243 9.09418C37.511 10.1299 36.7643 11.1151 35.6974 11.2667C34.6039 11.4435 33.5638 10.7362 33.4038 9.72572L32.817 6.44171C32.4436 4.24395 32.3636 3.8145 29.5365 3.8145H22.5489C19.7219 3.8145 19.6686 4.16816 19.2685 6.41645L18.6551 9.70046C18.4951 10.6351 17.6416 11.2919 16.6815 11.2919Z" fill="#292D32"/>
<path d="M34.5763 54.3127H17.4538C8.14578 54.3127 7.77239 49.4372 7.47902 45.4964L5.74543 20.0579C5.66542 19.0222 6.51888 18.1128 7.61237 18.037C8.73253 17.9865 9.666 18.7696 9.74601 19.8053L11.4796 45.2438C11.773 49.0835 11.8797 50.5234 17.4538 50.5234H34.5763C40.1771 50.5234 40.2838 49.0835 40.5505 45.2438L42.2841 19.8053C42.3641 18.7696 43.3242 17.9865 44.4177 18.037C45.5112 18.1128 46.3647 18.9969 46.2846 20.0579L44.5511 45.4964C44.2577 49.4372 43.8843 54.3127 34.5763 54.3127Z" fill="#292D32"/>
<path d="M30.4417 40.4186H21.5604C20.4669 40.4186 19.5601 39.5597 19.5601 38.524C19.5601 37.4883 20.4669 36.6294 21.5604 36.6294H30.4417C31.5352 36.6294 32.442 37.4883 32.442 38.524C32.442 39.5597 31.5352 40.4186 30.4417 40.4186Z" fill="#292D32"/>
<path d="M32.6817 30.3139H19.3465C18.253 30.3139 17.3462 29.455 17.3462 28.4193C17.3462 27.3836 18.253 26.5247 19.3465 26.5247H32.6817C33.7752 26.5247 34.682 27.3836 34.682 28.4193C34.682 29.455 33.7752 30.3139 32.6817 30.3139Z" fill="#292D32"/>
</svg>
